<?xml version="1.0" encoding="UTF-8" standalone="no"?>
<!DOCTYPE svg PUBLIC "-//W3C//DTD SVG 1.1//EN" "http://www.w3.org/Graphics/SVG/1.1/DTD/svg11.dtd">
<svg width="100%" height="100%" viewBox="0 0 1237 1225" version="1.1" xmlns="http://www.w3.org/2000/svg" xmlns:xlink="http://www.w3.org/1999/xlink" xml:space="preserve" xmlns:serif="http://www.serif.com/" style="fill-rule:evenodd;clip-rule:evenodd;stroke-linejoin:round;stroke-miterlimit:2;">
    <g transform="matrix(1,0,0,1,-5948.9,-1910.07)">
        <g id="Peach" transform="matrix(0.989269,0,0,0.818087,4250.75,1895.03)">
            <rect x="1716.56" y="18.389" width="1250" height="1497.4" style="fill:none;"/>
            <g transform="matrix(0.99063,0,0,1,17.0926,2.59541)">
                <g transform="matrix(1.70068,0,0,1.70068,-1639.14,-539.811)">
                    <path d="M1992.03,916.121L1992.02,916.091C1951.68,768.306 1977,591.914 2058.66,471.563C2060.83,468.369 2063.04,465.214 2065.28,462.099C2044.25,452.079 2022.79,443.125 2000.98,435.757C2000.97,435.753 2000.96,435.749 2000.94,435.744C1983.93,429.959 1972.55,410.8 1973.56,389.648C1974.58,368.496 1987.71,351.022 2005.12,347.615C2079.71,332.855 2150.4,334.045 2214,345.476C2222.51,342.385 2231.23,339.681 2240.17,337.387C2327.66,314.912 2435.85,331.662 2562.11,411.216C2631.3,454.815 2674.66,523.132 2695.89,602.043C2726.51,714.065 2711.69,848.381 2661.66,961.758C2611.49,1075.47 2526.22,1167.71 2418.07,1196.36C2326.08,1220.73 2216.89,1199.55 2098.16,1103.39C2097.55,1102.9 2096.97,1102.38 2096.4,1101.83C2077.13,1083.09 2060.19,1062.05 2045.54,1039.22C2037.34,1027.47 2027.8,1012.37 2024.08,1003.3C2023.15,1001.05 2022.43,998.901 2021.88,996.878C2009.55,971.353 1999.61,944.247 1992.03,916.121ZM2015.8,906.833C2023.18,934.245 2032.97,960.618 2045.21,985.34C2045.39,991.264 2056.36,1008.07 2065.04,1020.48C2078.6,1041.67 2094.29,1061.2 2112.16,1078.58C2484.23,1379.9 2754.02,910.72 2672.12,611.295C2652.81,539.523 2613.4,477.373 2550.47,437.721C2430.77,362.296 2328.36,345.361 2245.41,366.669C2235.29,369.268 2225.46,372.436 2215.92,376.137C2153.25,364.172 2083.22,362.515 2009.2,377.163C2003.3,378.317 1998.86,384.219 1998.52,391.364C1998.18,398.509 2002.02,404.98 2007.77,406.934C2042.29,418.601 2076,434.086 2108.56,451.509C2097.61,463.603 2087.44,476.633 2078.06,490.452C2001.57,603.176 1977.99,768.422 2015.8,906.833Z" style="fill:rgb(250,250,250);"/>
                </g>
                <g transform="matrix(0.970458,-0.37776,0.315347,1.16253,-5368.75,-24.6924)">
                    <path d="M7460.84,2623.89C6805.03,1950.79 6188.61,2777.59 6490.53,3243.85C7060.03,3974.4 7888.63,3062.96 7460.84,2623.89Z" style="fill:rgb(240,130,24);"/>
                </g>
                <g transform="matrix(0.970458,-0.37776,0.315347,1.16253,-5368.75,-24.6924)">
                    <path d="M7355.1,3365.54C7338.66,2854.05 6951.19,3040.02 6875.97,2714.6C6843.29,2573.25 6929.26,2470.87 7007.84,2370.48C7148.49,2385.01 7303.53,2460.16 7460.84,2621.62C7673.01,2839.38 7576.13,3173.33 7355.1,3365.54Z" style="fill:rgb(240,130,24);"/>
                </g>
                <g transform="matrix(0.970458,-0.37776,0.315347,1.16253,-5368.75,-24.6924)">
                    <path d="M7007.84,2370.48C6929.26,2470.87 6843.29,2573.25 6875.97,2714.6C6926.09,2931.41 7114.8,2921.22 7240.05,3041.53C7302.8,3101.8 7349.61,3194.82 7355.1,3365.54C7130.46,3560.88 6777.59,3609.81 6490.53,3241.59C6261.03,2887.17 6562.15,2324.43 7007.84,2370.48Z" style="fill:rgb(240,152,25);"/>
                </g>
                <g transform="matrix(0.970458,-0.37776,0.315347,1.16253,-5368.75,-24.6924)">
                    <path d="M7420.24,3297.59C7420.43,3259.48 7418,3201.16 7417.77,3197.39C7410.88,3088.14 7374.3,2971.79 7329.39,2868.3C7320.84,2848.6 7350.95,2767.44 7358.25,2756.03C7362.63,2749.2 7366.48,2742.07 7369.89,2735.09C7394.15,2685.26 7416.04,2637.36 7417.62,2586.08C7430.42,2598.11 7443.24,2610.71 7456.07,2623.89C7644.27,2817.04 7589.31,3101.61 7420.24,3297.59Z" style="fill:rgb(240,130,24);"/>
                </g>
                <g transform="matrix(0.970458,-0.37776,0.315347,1.16253,-5368.75,-24.6924)">
                    <path d="M7128.41,2616.01C7030.52,2660.77 7189.96,2946.48 7283.86,2903.12C7443.9,2829.21 7330.11,2523.78 7128.41,2616.01Z" style="fill:rgb(238,117,40);"/>
                </g>
                <g transform="matrix(1.02041,0,0,1.22236,-4790.12,-2843.34)">
                    <path d="M7178.69,2690.95L7159.53,2750.44C7132.55,2741.75 7104.48,2743.26 7077.33,2743.61C7042.02,2744.07 7021.15,2843.65 6990.56,2829.44C6894.94,2785.02 6932.86,2780.88 6843.7,2808.23C6690.22,2855.31 6572.37,3145.87 6547.11,3324.37C6547.11,3324.37 6494.74,3266.43 6496.7,3254.5C6526.62,3071.95 6592.24,2862.33 6695.52,2744.85C6776.15,2653.12 6878.52,2613.75 7003.73,2671.92C7025.94,2682.24 7050.88,2681.45 7076.52,2681.11C7110.31,2680.67 7145.11,2680.13 7178.69,2690.95Z" style="fill:rgb(240,130,24);"/>
                </g>
                <g transform="matrix(0.970458,-0.37776,0.315347,1.16253,-5368.75,-24.6924)">
                    <clipPath id="_clip1">
                        <path d="M7169.67,2801.81C7246.04,2739.15 7043.2,2458.95 6684.21,2394.14C6674.41,2392.32 6664.67,2397.56 6660.77,2406.73C6656.87,2415.9 6659.87,2426.55 6667.98,2432.34C6904.53,2600.56 7051.47,2898.8 7169.67,2801.81Z"/>
                    </clipPath>
                    <g clip-path="url(#_clip1)">
                        <path d="M6411.63,2966.96C6411.01,2655.71 6667.19,2335.28 7007.84,2370.48C7148.49,2385.01 7303.53,2460.16 7460.84,2621.62C7543.54,2706.5 7579.29,2809.04 7579.03,2913.95C7580.11,3352.34 6950.73,3834.19 6490.53,3243.85C6467.34,3208.04 6449.57,3170.1 6436.82,3130.88C6419.59,3077.89 6411.52,3022.56 6411.63,2966.96Z" style="fill-opacity:0.1;"/>
                    </g>
                </g>
                <g transform="matrix(1.01498,-0.125905,0.105103,1.21586,-5028.06,-1959.06)">
                    <path d="M7228.63,2753.2C7311.35,2649.35 6956.77,2333.79 6460.69,2363.85C6450.75,2364.43 6442.55,2371.84 6440.95,2381.67C6439.36,2391.5 6444.81,2401.12 6454.06,2404.8C6817.96,2549.36 7100.04,2914.63 7228.63,2753.2Z" style="fill:rgb(36,119,50);"/>
                </g>
            </g>
        </g>
    </g>
</svg>
