<?xml version="1.0" encoding="UTF-8" standalone="no"?>
<!DOCTYPE svg PUBLIC "-//W3C//DTD SVG 1.1//EN" "http://www.w3.org/Graphics/SVG/1.1/DTD/svg11.dtd">
<svg width="100%" height="100%" viewBox="0 0 1372 1280" version="1.1" xmlns="http://www.w3.org/2000/svg" xmlns:xlink="http://www.w3.org/1999/xlink" xml:space="preserve" xmlns:serif="http://www.serif.com/" style="fill-rule:evenodd;clip-rule:evenodd;stroke-linejoin:round;stroke-miterlimit:2;">
    <g transform="matrix(1,0,0,1,-3980.98,-2211.09)">
        <g id="Lemon" transform="matrix(1.09687,0,0,0.854261,2098.14,2195.38)">
            <rect x="1716.56" y="18.389" width="1250" height="1497.4" style="fill:none;"/>
            <g transform="matrix(1.51947,0,0,1.62866,-819.297,38.3386)">
                <g transform="matrix(0.6,0,0,0.71875,-595.312,-1660.5)">
                    <path d="M4714.22,2452.03C5067.1,2378.36 5140.2,2586.79 4995.03,2716.2L4714.22,2452.03Z" style="fill:rgb(36,119,50);"/>
                </g>
                <g transform="matrix(0.6,0,0,0.71875,-595.312,-1660.5)">
                    <path d="M4604.39,2384.47C4680.93,2396.9 4854.59,2586.93 4995.03,2716.2C4956.26,2726.19 4777.02,2582.47 4743.35,2566.31C4649.58,2521.33 4623.39,2488.31 4577.41,2452.03" style="fill:rgb(84,174,50);"/>
                </g>
                <g transform="matrix(0.6,0,0,0.71875,-595.312,-1660.5)">
                    <path d="M4608.43,2335.94C4600.9,2333.22 4577.92,2387.61 4577.92,2387.61L4528.54,2380.67L4552.8,2406.88L4570.61,2407.15L4558.82,2440.15L4577.41,2452.03C4577.41,2452.03 4627.81,2342.94 4608.43,2335.94Z" style="fill:rgb(36,119,50);"/>
                </g>
                <g transform="matrix(0.6,0,0,0.71875,-595.312,-1660.5)">
                    <path d="M4164.95,3526.79C4099.29,3504.26 4155.69,3453.83 4081.86,3387.62C3811.99,3145.62 3988.02,2665.92 4407.22,2549.39C4452.19,2484.43 4490.82,2397.66 4568.58,2445.57C4638.05,2496.57 4712.16,2545.33 4651.96,2658.77C4878.86,3016.41 4654.23,3503.99 4296.51,3483.62C4242.49,3513.14 4190.69,3539.36 4164.95,3526.79Z" style="fill:rgb(250,181,10);"/>
                </g>
                <g transform="matrix(0.6,0,0,0.71875,-595.312,-1660.5)">
                    <path d="M4164.95,3526.79C4099.29,3504.26 4155.69,3453.83 4081.86,3387.62C3811.99,3145.62 3988.02,2665.92 4407.22,2549.39C4452.19,2484.43 4490.82,2397.66 4568.58,2445.57C4638.05,2496.57 4712.16,2545.33 4651.96,2658.77C4878.86,3016.41 4654.23,3503.99 4296.51,3483.62C4242.49,3513.14 4190.69,3539.36 4164.95,3526.79Z" style="fill:rgb(250,181,10);"/>
                    <clipPath id="_clip1">
                        <path d="M4164.95,3526.79C4099.29,3504.26 4155.69,3453.83 4081.86,3387.62C3811.99,3145.62 3988.02,2665.92 4407.22,2549.39C4452.19,2484.43 4490.82,2397.66 4568.58,2445.57C4638.05,2496.57 4712.16,2545.33 4651.96,2658.77C4878.86,3016.41 4654.23,3503.99 4296.51,3483.62C4242.49,3513.14 4190.69,3539.36 4164.95,3526.79Z"/>
                    </clipPath>
                    <g clip-path="url(#_clip1)">
                        <g transform="matrix(0.803763,0,0,0.805367,913.199,570.744)">
                            <path d="M4534.97,2384.96C4311.09,2230.69 3902.49,2455.39 3853.12,2850.68C4137.01,2870.43 4678.76,2502.69 4534.97,2384.96Z" style="fill-opacity:0.1;"/>
                        </g>
                    </g>
                </g>
                <g transform="matrix(0.6,0,0,0.71875,-595.312,-1660.5)">
                    <path d="M4406.51,2549.59C4406.74,2549.53 4406.98,2549.46 4407.22,2549.39C4452.19,2484.43 4490.82,2397.66 4568.58,2445.57C4637.82,2496.4 4712.91,2544.4 4651.96,2658.77C4626.49,2684.21 4395.08,2594.89 4406.51,2549.59Z" style="fill:rgb(249,174,32);"/>
                </g>
                <g transform="matrix(0.6,0,0,0.71875,-595.312,-1660.5)">
                    <path d="M4406.51,2549.59C4406.74,2549.53 4406.98,2549.46 4407.22,2549.39C4452.19,2484.43 4490.82,2397.66 4568.58,2445.57C4637.82,2496.4 4712.91,2544.4 4651.96,2658.77C4626.49,2684.21 4395.08,2594.89 4406.51,2549.59Z" style="fill:rgb(249,174,32);"/>
                    <clipPath id="_clip2">
                        <path d="M4406.51,2549.59C4406.74,2549.53 4406.98,2549.46 4407.22,2549.39C4452.19,2484.43 4490.82,2397.66 4568.58,2445.57C4637.82,2496.4 4712.91,2544.4 4651.96,2658.77C4626.49,2684.21 4395.08,2594.89 4406.51,2549.59Z"/>
                    </clipPath>
                    <g clip-path="url(#_clip2)">
                        <g transform="matrix(0.803763,0,0,0.805367,913.199,570.744)">
                            <path d="M4534.97,2384.96C4311.09,2230.69 3902.49,2455.39 3853.12,2850.68C4137.01,2870.43 4678.76,2502.69 4534.97,2384.96Z" style="fill-opacity:0.1;"/>
                        </g>
                    </g>
                </g>
                <g transform="matrix(0.6,0,0,0.71875,-595.312,-1660.5)">
                    <path d="M4296.51,3483.62C4243.61,3512.45 4190.52,3539.12 4165.28,3526.79C4099.61,3504.26 4156.02,3453.83 4082.18,3387.62C4073.77,3380.08 4222.32,3496.7 4296.51,3483.62Z" style="fill:rgb(255,176,26);"/>
                </g>
                <g transform="matrix(0.6,0,0,0.71875,-595.312,-1660.5)">
                    <path d="M4534.97,2384.96C4311.09,2230.69 3902.49,2455.39 3853.12,2850.68C4137.01,2870.43 4678.76,2502.69 4534.97,2384.96Z" style="fill:rgb(36,119,50);"/>
                </g>
                <g>
                    <g transform="matrix(0.427921,0,0,0.513917,60.8048,-716.681)">
                        <ellipse cx="4430.78" cy="2966.31" rx="14.606" ry="14.568" style="fill-opacity:0.05;"/>
                    </g>
                    <g transform="matrix(0.427921,0,0,0.513917,79.4677,-794.355)">
                        <ellipse cx="4430.78" cy="2966.31" rx="14.606" ry="14.568" style="fill-opacity:0.05;"/>
                    </g>
                    <g transform="matrix(0.427921,0,0,0.513917,-1.1777,-777.313)">
                        <ellipse cx="4430.78" cy="2966.31" rx="14.606" ry="14.568" style="fill-opacity:0.05;"/>
                    </g>
                    <g transform="matrix(0.427921,0,0,0.513917,85.2517,-870.666)">
                        <ellipse cx="4430.78" cy="2966.31" rx="14.606" ry="14.568" style="fill-opacity:0.05;"/>
                    </g>
                    <g transform="matrix(0.427921,0,0,0.513917,-7.49018,-870.666)">
                        <ellipse cx="4430.78" cy="2966.31" rx="14.606" ry="14.568" style="fill-opacity:0.05;"/>
                    </g>
                    <g transform="matrix(0.427921,0,0,0.513917,22.5884,-947.332)">
                        <ellipse cx="4430.78" cy="2966.31" rx="14.606" ry="14.568" style="fill-opacity:0.05;"/>
                    </g>
                    <g transform="matrix(0.427921,0,0,0.513917,-59.5556,-947.468)">
                        <ellipse cx="4430.78" cy="2966.31" rx="14.606" ry="14.568" style="fill-opacity:0.05;"/>
                    </g>
                    <g transform="matrix(0.427921,0,0,0.513917,-9.60601,-1028.83)">
                        <ellipse cx="4430.78" cy="2966.31" rx="14.606" ry="14.568" style="fill-opacity:0.05;"/>
                    </g>
                    <g transform="matrix(0.427921,0,0,0.513917,65.5888,-1028.83)">
                        <ellipse cx="4430.78" cy="2966.31" rx="14.606" ry="14.568" style="fill-opacity:0.05;"/>
                    </g>
                    <g transform="matrix(0.427921,0,0,0.513917,47.8188,-1124.04)">
                        <ellipse cx="4430.78" cy="2966.31" rx="14.606" ry="14.568" style="fill-opacity:0.05;"/>
                    </g>
                    <g transform="matrix(0.427921,0,0,0.513917,133.079,-1136.93)">
                        <ellipse cx="4430.78" cy="2966.31" rx="14.606" ry="14.568" style="fill-opacity:0.05;"/>
                    </g>
                    <g transform="matrix(0.427921,0,0,0.513917,193.202,-1209.47)">
                        <ellipse cx="4430.78" cy="2966.31" rx="14.606" ry="14.568" style="fill-opacity:0.05;"/>
                    </g>
                    <g transform="matrix(0.427921,0,0,0.513917,273.588,-1182.06)">
                        <ellipse cx="4430.78" cy="2966.31" rx="14.606" ry="14.568" style="fill-opacity:0.05;"/>
                    </g>
                    <g transform="matrix(0.427921,0,0,0.513917,254.882,-1253.47)">
                        <ellipse cx="4430.78" cy="2966.31" rx="14.606" ry="14.568" style="fill-opacity:0.05;"/>
                    </g>
                    <g transform="matrix(0.427921,0,0,0.513917,219.247,-1120.74)">
                        <ellipse cx="4430.78" cy="2966.31" rx="14.606" ry="14.568" style="fill-opacity:0.05;"/>
                    </g>
                    <g transform="matrix(0.427921,0,0,0.513917,311.607,-1120.02)">
                        <ellipse cx="4430.78" cy="2966.31" rx="14.606" ry="14.568" style="fill-opacity:0.05;"/>
                    </g>
                    <g transform="matrix(0.427921,0,0,0.513917,267.338,-1043.81)">
                        <ellipse cx="4430.78" cy="2966.31" rx="14.606" ry="14.568" style="fill-opacity:0.05;"/>
                    </g>
                    <g transform="matrix(0.427921,0,0,0.513917,156.152,-1042.43)">
                        <ellipse cx="4430.78" cy="2966.31" rx="14.606" ry="14.568" style="fill-opacity:0.05;"/>
                    </g>
                    <g transform="matrix(0.427921,0,0,0.513917,111.339,-949.704)">
                        <ellipse cx="4430.78" cy="2966.31" rx="14.606" ry="14.568" style="fill-opacity:0.05;"/>
                    </g>
                    <g transform="matrix(0.427921,0,0,0.513917,224.108,-977.921)">
                        <ellipse cx="4430.78" cy="2966.31" rx="14.606" ry="14.568" style="fill-opacity:0.05;"/>
                    </g>
                    <g transform="matrix(0.427921,0,0,0.513917,311.167,-968.119)">
                        <ellipse cx="4430.78" cy="2966.31" rx="14.606" ry="14.568" style="fill-opacity:0.05;"/>
                    </g>
                    <g transform="matrix(0.427921,0,0,0.513917,196.62,-902.282)">
                        <ellipse cx="4430.78" cy="2966.31" rx="14.606" ry="14.568" style="fill-opacity:0.05;"/>
                    </g>
                    <g transform="matrix(0.427921,0,0,0.513917,279.838,-858.714)">
                        <ellipse cx="4430.78" cy="2966.31" rx="14.606" ry="14.568" style="fill-opacity:0.05;"/>
                    </g>
                    <g transform="matrix(0.427921,0,0,0.513917,229.362,-781.194)">
                        <ellipse cx="4430.78" cy="2966.31" rx="14.606" ry="14.568" style="fill-opacity:0.05;"/>
                    </g>
                    <g transform="matrix(0.427921,0,0,0.513917,156.152,-824.367)">
                        <ellipse cx="4430.78" cy="2966.31" rx="14.606" ry="14.568" style="fill-opacity:0.05;"/>
                    </g>
                    <g transform="matrix(0.427921,0,0,0.513917,141.637,-730.677)">
                        <ellipse cx="4430.78" cy="2966.31" rx="14.606" ry="14.568" style="fill-opacity:0.05;"/>
                    </g>
                    <g transform="matrix(0.427921,0,0,0.513917,-66.8346,-1073.88)">
                        <ellipse cx="4430.78" cy="2966.31" rx="14.606" ry="14.568" style="fill-opacity:0.05;"/>
                    </g>
                    <g transform="matrix(0.427921,0,0,0.513917,-76.7953,-839.341)">
                        <ellipse cx="4430.78" cy="2966.31" rx="14.606" ry="14.568" style="fill-opacity:0.05;"/>
                    </g>
                </g>
                <g transform="matrix(1,0,0,1,-145.698,-306.02)">
                    <path d="M2564.04,620.148C2563.97,620.213 2563.91,620.278 2563.85,620.342C2560.59,623.762 2556.77,625.993 2552.78,627.042C2547.66,628.432 2541.01,628.601 2533.15,626.251C2523.75,623.442 2510.53,616.112 2495.72,605.733C2455.47,577.527 2399.51,525.068 2385.58,517.064C2383.5,515.865 2381.46,514.676 2379.47,513.498C2378.33,526.096 2375.35,539.816 2369.97,554.828C2449.18,717.294 2430.78,910.862 2355.72,1038.31C2304.01,1126.12 2225.79,1182.78 2134.14,1179.65C2110.99,1194.54 2088.68,1207.24 2071.79,1211.11C2059.28,1213.98 2048.53,1212.63 2040.04,1208.23C2027.15,1202.68 2019.29,1195.21 2013.88,1187.22C2008.02,1178.57 2004.83,1168.82 2003.01,1157.64C2000.72,1143.58 2003.01,1124.37 1982.81,1102.67C1890.49,1003.5 1876.23,853.723 1923.64,719.918C1901.22,724.32 1879.94,725.944 1860.52,724.326C1853.67,723.755 1847.32,719.832 1842.95,713.479C1838.59,707.127 1836.6,698.903 1837.45,690.739C1856.29,510.072 1956.85,375.986 2065.3,321.631C2139.03,284.674 2216.32,284.518 2276.25,327.858C2276.25,327.858 2282.27,328.873 2282.27,328.873C2283.49,325.961 2284.76,323.059 2286.02,320.393C2290.46,310.964 2295.62,303.944 2298.93,300.996C2308.2,292.764 2317.12,293.367 2323.93,296.313C2331.62,299.637 2337.76,306.186 2341.05,317.076C2342.49,321.834 2343.44,328.313 2342.98,336.189C2342.89,337.727 2342.74,339.378 2342.53,341.125C2355.31,349.124 2369.91,360.921 2385.6,375.824C2498.42,350.86 2566.17,383.678 2595.23,430.172C2628.75,483.786 2619.03,561.426 2564.04,620.148ZM2547.4,597.792C2537.87,587.28 2528.08,576.209 2518.15,564.827L2547.4,597.792C2634.51,504.783 2590.65,354.974 2378.92,407.921C2352.08,381.073 2329.02,362.472 2313.02,359.359C2317.73,342.225 2320.42,326.633 2315.44,324.48C2310.93,322.528 2297.14,361.621 2297.14,361.621L2267.51,356.629C2132.4,251.916 1891.6,413.033 1862.26,694.45C1894.21,697.114 1931.61,689.977 1970.71,676.065C1901.51,810.15 1902.35,976.015 1999.5,1080.38C2043.8,1127.97 2009.96,1164.21 2049.36,1180.41C2064.8,1189.44 2095.88,1170.6 2128.3,1149.38C2342.92,1164.02 2477.7,813.573 2341.56,556.516C2364.47,505.028 2355.35,472.255 2335.13,445.975C2349.66,459.407 2367.79,473.624 2396.4,490.062C2416.6,501.671 2524.14,604.972 2547.4,597.792ZM2288.36,390.385L2285.47,389.897C2285.03,384.817 2283.91,379.995 2282.06,375.469L2292.75,375.665L2288.36,390.385ZM2285.67,394.025L2286.73,395.855L2285.68,399.382C2285.63,399.353 2285.58,399.323 2285.53,399.294C2285.65,397.511 2285.7,395.754 2285.67,394.025Z" style="fill:rgb(250,250,250);"/>
                </g>
            </g>
        </g>
    </g>
</svg>
