<?xml version="1.0" encoding="UTF-8" standalone="no"?>
<!DOCTYPE svg PUBLIC "-//W3C//DTD SVG 1.1//EN" "http://www.w3.org/Graphics/SVG/1.1/DTD/svg11.dtd">
<svg width="100%" height="100%" viewBox="0 0 1047 1128" version="1.1" xmlns="http://www.w3.org/2000/svg" xmlns:xlink="http://www.w3.org/1999/xlink" xml:space="preserve" xmlns:serif="http://www.serif.com/" style="fill-rule:evenodd;clip-rule:evenodd;stroke-linecap:round;stroke-linejoin:round;stroke-miterlimit:1.5;">
    <g transform="matrix(1,0,0,1,-4950.64,-311.748)">
        <g id="Cat" transform="matrix(0.837012,0,0,0.753163,3513.85,297.898)">
            <rect x="1716.56" y="18.389" width="1250" height="1497.4" style="fill:none;"/>
            <g transform="matrix(1.18191,0,0,1.0862,-393.946,-7.90957)">
                <path d="M2453.16,1363.12C2438.09,1375.29 2411.11,1386.17 2378.05,1389.35C2335.29,1393.47 2281.6,1385.76 2236.33,1358.87C2195.08,1334.36 2128.16,1310.34 2061.59,1273.48C1987.39,1232.38 1914.36,1175.78 1869.84,1091.5C1869.83,1091.48 1869.82,1091.46 1869.81,1091.44C1844.98,1044.29 1831.55,989.68 1831.05,933.801C1830.37,861.119 1828.96,704.76 1828.4,643.873C1828.28,630.279 1827.26,616.719 1825.36,603.322L1825.36,603.298C1796.52,399.749 1795.74,240.479 1823.71,159.016C1841.63,106.805 1870.47,78.88 1906.34,72.756C1937.75,65.808 1977.32,78.08 2021.5,112.527C2069.57,150.018 2126.5,214.788 2188.36,296.571C2277.55,278.11 2366.5,275.156 2455.2,288.793C2505.37,208.17 2549.19,129.949 2590.37,83.991C2633.22,36.171 2676.09,19.555 2717.82,37.452C2759.11,52.601 2787.9,96.412 2802.83,163.65C2827.96,276.795 2814.68,467.886 2821.06,618.197C2824.46,671.664 2838.59,774.71 2834.84,875.727C2832.03,951.309 2818.98,1025.5 2788.26,1081.79C2738.07,1173.77 2693.11,1211.51 2637.91,1244.87C2589.89,1273.88 2532.78,1298.77 2453.16,1363.12Z" style="fill:rgb(252,250,250);"/>
            </g>
            <g transform="matrix(1.18191,0,0,1.0862,-393.946,-7.90957)">
                <g transform="matrix(1.01085,0,0,1.22236,-2980.18,-6626.88)">
                    <path d="M5351.88,6501.86C5324.73,6520.01 5241.98,6526.62 5178.9,6495.64C5096.8,6455.3 4912.59,6416.32 4833.09,6291.87C4812.7,6259.86 4801.68,6222.78 4801.26,6184.82C4800.59,6125.37 4799.19,5997.46 4798.65,5947.65C4798.5,5934.32 4797.3,5921.02 4795.04,5907.88C4756.86,5685.03 4766.26,5531.49 4840.78,5522.02C4898.7,5510.37 4990.69,5589.62 5097.77,5709.16C5197.3,5689.61 5296.53,5686.83 5395.42,5702.3C5485.72,5584.98 5553.45,5465.48 5623.84,5491.6C5720.59,5519.38 5688.51,5758.09 5697.4,5929.73C5702.76,6000.67 5738.11,6182.87 5671.77,6283.41C5583.18,6417.65 5513.4,6393.92 5351.88,6501.86Z" style="fill:rgb(32,30,29);"/>
                </g>
                <g transform="matrix(1.01085,0,0,1.22236,-2980.18,-6626.88)">
                    <clipPath id="_clip1">
                        <path d="M5285.6,6024.66C5284.84,6020.39 5281.07,6017.32 5276.73,6017.44C5272.39,6017.56 5268.79,6020.84 5268.26,6025.15C5233.24,6327.84 5090.26,6308.39 4864.4,6306.62C4860.13,6306.59 4856.2,6308.91 4854.15,6312.66C4852.11,6316.41 4852.3,6320.98 4854.63,6324.55C5044.73,6612.44 5463.92,6694.77 5665.75,6299.91C5669.3,6292.94 5668.65,6284.56 5664.07,6278.22C5659.48,6271.87 5651.74,6268.62 5644,6269.8C5388.64,6309.13 5321.99,6246.96 5285.6,6024.66Z"/>
                    </clipPath>
                    <g clip-path="url(#_clip1)">
                        <path d="M5351.88,6501.86C5324.73,6520.01 5241.98,6526.62 5178.9,6495.64C5096.8,6455.3 4912.59,6416.32 4833.09,6291.87C4812.7,6259.86 4801.68,6222.78 4801.26,6184.82C4800.59,6125.37 4799.19,5997.46 4798.65,5947.65C4798.5,5934.32 4797.3,5921.02 4795.04,5907.88C4756.86,5685.03 4766.26,5531.49 4840.78,5522.02C4898.7,5510.37 4990.69,5589.62 5097.77,5709.16C5197.3,5689.61 5296.53,5686.83 5395.42,5702.3C5485.72,5584.98 5553.45,5465.48 5623.84,5491.6C5720.59,5519.38 5688.51,5758.09 5697.4,5929.73C5702.76,6000.67 5738.11,6182.87 5671.77,6283.41C5583.18,6417.65 5513.4,6393.92 5351.88,6501.86Z" style="fill:rgb(239,237,236);"/>
                    </g>
                </g>
            </g>
            <g transform="matrix(1.06726,0,0,1.18608,-3294.97,-6408.13)">
                <path d="M5014.71,5624.8C5202.57,5801.47 4987.67,5933.14 4851.17,5934.84C4821.5,5935.17 4796.26,5913.29 4792.36,5883.88C4764.65,5675.4 4769,5531.14 4840.78,5522.02C4881.07,5513.92 4937.84,5549.8 5004.71,5612.62C5008.02,5616.55 5010.8,5621.12 5014.71,5624.8Z" style="fill:rgb(244,162,168);"/>
            </g>
            <g transform="matrix(1.08739,0,0,1.20844,-3311.05,-6537.42)">
                <path d="M5402.7,5725.94C5399.52,5709.11 5403.56,5691.72 5413.84,5678.02C5495.09,5569.16 5558.31,5467.28 5623.84,5491.6C5692.13,5511.21 5691.35,5754.7 5684.98,5896.22C5684.13,5914.82 5672.7,5931.28 5655.57,5938.57C5638.44,5945.86 5618.64,5942.68 5604.66,5930.4C5554.18,5885.74 5488.03,5827.97 5439.91,5788.7C5419.97,5772.43 5407.18,5750.02 5402.7,5725.94Z" style="fill:rgb(244,162,168);"/>
            </g>
            <g transform="matrix(1.59272,0,0,1.46375,-1304.37,-341.887)">
                <g transform="matrix(1.01085,0,0,1.22236,-2980.18,-6626.88)">
                    <path d="M5023.88,6097.32C5023.52,6095.34 5024.42,6093.35 5026.13,6092.3C5088.55,6054.43 5164.04,6089.21 5166.04,6151.37C5166.13,6154.6 5164.2,6157.54 5161.2,6158.74C5082.16,6190.18 5033.72,6150.87 5023.88,6097.32Z" style="fill:rgb(84,175,49);"/>
                </g>
                <g transform="matrix(1.01085,0,0,1.22236,-2980.18,-6626.88)">
                    <path d="M5100.32,6078.52C5100.92,6080.86 5102.12,6085.71 5103.42,6092.32C5103.84,6094.44 5104.21,6096.49 5104.51,6098.87C5104.86,6101.68 5105.15,6104.51 5105.23,6107.53C5105.28,6109.43 5105.27,6111.35 5105.07,6113.26C5104.87,6115.18 5104.48,6117.05 5104.06,6118.91C5103.38,6121.88 5102.59,6124.61 5101.7,6127.31C5097.65,6139.64 5093.82,6148.15 5093.82,6148.15C5093.72,6149.34 5092.67,6150.23 5091.48,6150.12C5090.29,6150.02 5089.41,6148.98 5089.51,6147.78C5089.51,6147.78 5087.18,6138.74 5085.28,6125.91C5084.86,6123.09 5084.55,6120.27 5084.38,6117.23C5084.27,6115.32 5084.21,6113.41 5084.34,6111.49C5084.47,6109.57 5084.78,6107.68 5085.15,6105.82C5085.75,6102.86 5086.52,6100.11 5087.34,6097.4C5088.03,6095.11 5088.75,6093.15 5089.52,6091.13C5092.1,6084.37 5094.22,6079.59 5095.12,6077.61C5096.87,6077.87 5098.6,6078.17 5100.32,6078.52Z" style="fill:rgb(32,30,29);"/>
                </g>
            </g>
            <g transform="matrix(1.54592,0,0,1.42074,-1285.78,-283.797)">
                <g transform="matrix(1.01085,0,0,1.22236,-2980.18,-6626.88)">
                    <path d="M5382.83,6143.58C5379.62,6142.97 5377.12,6140.46 5376.51,6137.26C5365.31,6077.23 5423.97,6034.29 5508.95,6053.79C5511.6,6054.4 5513.47,6056.77 5513.46,6059.49C5512.88,6135.79 5461.98,6158.68 5382.83,6143.58Z" style="fill:rgb(84,175,49);"/>
                </g>
                <g transform="matrix(1.01085,0,0,1.22236,-2980.18,-6626.88)">
                    <path d="M5443.31,6051.36C5443.37,6051.53 5443.41,6051.7 5443.42,6051.88C5443.42,6051.88 5447.26,6060.4 5451.31,6072.73C5452.19,6075.43 5452.98,6078.16 5453.66,6081.13C5454.09,6082.99 5454.48,6084.86 5454.67,6086.78C5454.87,6088.69 5454.89,6090.61 5454.83,6092.5C5454.75,6095.53 5454.46,6098.36 5454.11,6101.17C5453.81,6103.55 5453.44,6105.6 5453.03,6107.72C5451.15,6117.22 5449.51,6123.08 5449.51,6123.08C5449.61,6124.27 5448.72,6125.32 5447.53,6125.42C5446.34,6125.52 5445.29,6124.64 5445.19,6123.44C5445.19,6123.44 5442.57,6117.95 5439.12,6108.9C5438.35,6106.89 5437.63,6104.93 5436.94,6102.64C5436.12,6099.93 5435.35,6097.18 5434.76,6094.22C5434.38,6092.36 5434.07,6090.46 5433.94,6088.55C5433.81,6086.62 5433.88,6084.71 5433.98,6082.81C5434.15,6079.77 5434.46,6076.95 5434.88,6074.13C5436.78,6061.3 5439.11,6052.25 5439.11,6052.25C5439.11,6052.25 5439.11,6052.24 5439.11,6052.24C5440.49,6051.92 5441.89,6051.63 5443.31,6051.36Z" style="fill:rgb(32,30,29);"/>
                </g>
            </g>
            <g transform="matrix(1.18191,0,0,1.0862,-393.946,-7.90957)">
                <g transform="matrix(1.01085,0,0,1.22236,-2980.18,-6626.88)">
                    <path d="M5204.64,6443.86C5228.06,6430.53 5260.15,6423.22 5291.24,6423.85C5321.01,6424.45 5351.3,6426.44 5371.82,6436.88" style="fill:none;stroke:rgb(244,162,168);stroke-width:8.33px;"/>
                </g>
                <g transform="matrix(1.01085,-5.81007e-16,-4.8047e-16,1.22236,-2980.18,-6626.88)">
                    <path d="M5287.39,6389.85C5287.43,6387.55 5289.33,6385.72 5291.63,6385.76C5293.93,6385.8 5295.76,6387.7 5295.72,6390L5294.01,6423.9C5293.98,6425.6 5292.58,6426.95 5290.88,6426.92C5289.19,6426.89 5287.84,6425.49 5287.87,6423.79L5287.39,6389.85Z" style="fill:rgb(244,162,168);"/>
                </g>
            </g>
            <g transform="matrix(1.1932,0.0670738,-0.0603546,1.32604,-3521.92,-7551)">
                <path d="M5234.36,6317.99C5232.45,6316.57 5231.34,6314.32 5231.36,6311.94C5231.38,6309.56 5232.54,6307.33 5234.48,6305.95C5263.76,6285.27 5295.76,6283.86 5329.93,6297.59C5332.34,6298.56 5334.07,6300.72 5334.49,6303.29C5334.91,6305.86 5333.95,6308.46 5331.97,6310.14C5304.77,6332.99 5319.8,6388.84 5291.02,6389.91C5264.66,6390.89 5276.07,6348.72 5234.36,6317.99Z" style="fill:rgb(255,166,169);"/>
            </g>
            <g transform="matrix(1.02634,0.135419,-0.10949,1.02488,-3150.29,-781.471)">
                <ellipse cx="5418.41" cy="1252.46" rx="7.225" ry="8.04" style="fill:rgb(32,30,29);"/>
            </g>
            <g transform="matrix(1.03355,0,0,1.03207,-3077.59,-72.4028)">
                <ellipse cx="5418.41" cy="1252.46" rx="7.225" ry="8.04" style="fill:rgb(32,30,29);"/>
            </g>
            <g transform="matrix(1.03355,0,0,1.03207,-3077.35,-22.8492)">
                <ellipse cx="5418.41" cy="1252.46" rx="7.225" ry="8.04" style="fill:rgb(32,30,29);"/>
            </g>
            <g transform="matrix(1.03355,0,0,1.03207,-3035.09,-47.0571)">
                <ellipse cx="5418.41" cy="1252.46" rx="7.225" ry="8.04" style="fill:rgb(32,30,29);"/>
            </g>
            <g transform="matrix(1.02634,0.135419,-0.10949,1.02488,-3142.94,-734.793)">
                <ellipse cx="5418.41" cy="1252.46" rx="7.225" ry="8.04" style="fill:rgb(32,30,29);"/>
            </g>
            <g transform="matrix(1.02634,0.135419,-0.10949,1.02488,-3192.74,-749.721)">
                <ellipse cx="5418.41" cy="1252.46" rx="7.225" ry="8.04" style="fill:rgb(32,30,29);"/>
            </g>
        </g>
    </g>
</svg>
