<?xml version="1.0" encoding="UTF-8" standalone="no"?>
<!DOCTYPE svg PUBLIC "-//W3C//DTD SVG 1.1//EN" "http://www.w3.org/Graphics/SVG/1.1/DTD/svg11.dtd">
<svg width="100%" height="100%" viewBox="0 0 761 1095" version="1.1" xmlns="http://www.w3.org/2000/svg" xmlns:xlink="http://www.w3.org/1999/xlink" xml:space="preserve" xmlns:serif="http://www.serif.com/" style="fill-rule:evenodd;clip-rule:evenodd;stroke-linejoin:round;stroke-miterlimit:2;">
    <g transform="matrix(1,0,0,1,-6156.12,-321.003)">
        <g id="Dog" transform="matrix(0.608088,0,0,0.730876,5112.3,307.563)">
            <rect x="1716.56" y="18.389" width="1250" height="1497.4" style="fill:none;"/>
            <g transform="matrix(1.37646,0,0,1.03049,-973.974,6.76379)">
                <g transform="matrix(1.19473,0,0,1.32773,-5973.83,-392.229)">
                    <path d="M6680.95,877.35C6666.56,854.412 6655.23,819.628 6648.35,777.653C6637.69,712.625 6636.08,628.754 6640.68,552.403C6645.97,464.432 6660.32,386.29 6676.34,354.543C6690.25,326.978 6710.85,318.718 6726.03,318.761C6769.08,318.882 6798.88,337.553 6821.77,369.167C6843.09,398.6 6857.54,442.142 6874.11,489.901C6889.61,534.552 6907.54,583.646 6942.02,623.793C6942.02,623.793 7062.64,638.882 7062.68,638.886C7068.1,639.479 7072.81,635.728 7078.12,631.71C7087.01,624.973 7095.73,615.666 7104.55,604.927C7147.55,552.526 7190.43,471.054 7235.22,426.763C7267.65,394.691 7302.44,380.021 7336.99,387.372C7349.69,390.073 7366.54,400.693 7375.23,426.863C7385.98,459.287 7389.57,534.658 7381.77,617.459C7374.89,690.499 7359.69,769.421 7335.53,828.292C7322.05,861.151 7305.43,888.121 7286.6,906.494C7283.08,922.902 7279.34,938.698 7275.37,953.903C7270.02,974.445 7264.29,993.916 7258.21,1012.37C7224.56,1114.48 7180.21,1185.88 7131.94,1235.38C7086.77,1281.7 7037.97,1309.35 6990.16,1324.76C6983.11,1332.11 6974.11,1339.21 6962.53,1345.84C6949.11,1353.51 6931.74,1360.83 6909.48,1367.33C6891.29,1372.83 6872.33,1373.4 6854.4,1369.33C6836.5,1365.26 6819.61,1356.68 6805.68,1343.94C6792.14,1331.65 6783.36,1319.8 6777.86,1308.56C6771.91,1296.38 6769.44,1284.6 6769.48,1273.06C6769.5,1267.01 6770.19,1261.02 6771.54,1255.08C6771.87,1253.6 6772.25,1252.12 6772.66,1250.65C6736.69,1194.72 6701.32,1116.12 6684.52,1036.48C6672.96,981.708 6670.2,926.477 6680.95,877.35ZM6682.56,870.435C6682.99,868.684 6683.44,866.942 6683.91,865.209L6681.74,864.628L6682.56,870.435Z" style="fill:rgb(252,250,250);"/>
                </g>
                <g>
                    <g transform="matrix(1.19473,0,0,1.32773,-5973.83,-392.229)">
                        <path d="M6726.06,358.551C6836.04,358.472 6813.41,547.273 6923.18,660.196L7058.11,676.592C7149.57,687.36 7231.31,402.676 7329.49,423.207C7369.16,431.501 7354.75,809.731 7254.84,888.013C7184.42,1238.48 7008.53,1309.18 6878.97,1308.77C6819.16,1308.58 6658.69,1029.22 6718.21,858.283C6650.77,762.925 6681.77,358.584 6726.06,358.551Z" style="fill:rgb(238,117,40);"/>
                    </g>
                    <g transform="matrix(1.19473,0,0,1.32773,-5973.83,-392.229)">
                        <clipPath id="_clip1">
                            <path d="M6726.06,358.551C6836.04,358.472 6813.41,547.273 6923.18,660.196L7058.11,676.592C7149.57,687.36 7231.31,402.676 7329.49,423.207C7369.16,431.501 7354.75,809.731 7254.84,888.013C7184.42,1238.48 7008.53,1309.18 6878.97,1308.77C6819.16,1308.58 6658.69,1029.22 6718.21,858.283C6650.77,762.925 6681.77,358.584 6726.06,358.551Z"/>
                        </clipPath>
                        <g clip-path="url(#_clip1)">
                            <path d="M6713.65,873.154C6740.56,862.172 6757.46,880.052 6733.72,918.305C6731.9,921.268 6731.56,924.906 6732.79,928.155C6734.03,931.404 6736.7,933.897 6740.02,934.906C6818.34,958.974 6853.47,899.162 6880.51,894.471C6882.3,894.151 6884.12,894.836 6885.25,896.256C6886.39,897.675 6886.66,899.602 6885.95,901.277C6877.01,922.647 6848.5,990.458 6848.5,990.458L6974.09,1015.13C6974.09,1015.13 6988.57,924.245 6992.15,901.809C6992.37,900.374 6993.22,899.11 6994.45,898.345C6995.69,897.58 6997.19,897.39 6998.58,897.824C7035.75,910.379 7055.07,1025.49 7176.16,971.573C7135.25,880.241 7234.02,918.264 7225.44,1001.69C7438.74,727.345 7452.19,407.277 7452.19,407.277L6451.34,323.244C6451.34,323.244 6696.25,804.442 6713.65,873.154Z" style="fill:rgb(32,30,29);"/>
                        </g>
                    </g>
                    <g transform="matrix(1.19473,0,0,1.32773,-5973.83,-392.229)">
                        <path d="M6796.6,830.712C6794.93,832.42 6794.7,835.071 6796.06,837.035C6808.32,854.57 6827.33,861.247 6854.57,854.752C6857.21,854.118 6858.86,851.48 6858.28,848.823C6851.66,820.364 6822.48,804.235 6796.6,830.712Z" style="fill:rgb(242,168,74);"/>
                    </g>
                    <g transform="matrix(1.19473,0,0,1.32773,-5973.83,-392.229)">
                        <path d="M7046.42,868.414C7045.82,869.638 7045.74,871.055 7046.22,872.335C7046.69,873.614 7047.67,874.642 7048.93,875.177C7084.12,890.233 7106.37,887.557 7116.8,868.734C7117.77,866.98 7117.6,864.814 7116.36,863.235C7093.35,833.981 7062.7,835.282 7046.42,868.414Z" style="fill:rgb(242,168,74);"/>
                    </g>
                    <g transform="matrix(1.19473,0,0,1.32773,-5973.83,-392.229)">
                        <path d="M6850.89,1014.11C6847.18,1008.15 6845.96,1000.96 6847.51,994.11C6858.61,944.386 6947.4,956.315 6970.81,990.413C6978.26,1001.24 6977.01,1015.82 6967.81,1025.21C6946.23,1047.33 6922.7,1070.19 6903.88,1069.5C6887.34,1068.89 6869.12,1043.4 6850.89,1014.11Z" style="fill:rgb(90,49,33);"/>
                    </g>
                    <g transform="matrix(1.18195,-0.193674,0.174272,1.31353,-6066.68,976.793)">
                        <path d="M6945.82,1001.69C6956.23,1001.69 6964.68,1009.77 6964.68,1019.73C6964.68,1029.68 6953.53,1030.76 6945.82,1037.76C6934.91,1047.67 6926.66,1035.49 6926.96,1019.73C6927.14,1009.77 6935.41,1001.69 6945.82,1001.69Z" style="fill:rgb(32,30,29);"/>
                    </g>
                    <g transform="matrix(-1.08026,-0.439183,-0.397543,1.20768,10145.9,2779.08)">
                        <path d="M6945.82,1001.69C6956.23,1001.69 6964.53,1008.7 6964.53,1018.65C6964.53,1028.6 6953.53,1030.76 6945.82,1037.76C6934.91,1047.67 6926.66,1035.49 6926.96,1019.73C6927.14,1009.77 6935.41,1001.69 6945.82,1001.69Z" style="fill:rgb(32,30,29);"/>
                    </g>
                    <g transform="matrix(1.19473,0,0,1.32773,-5973.83,-392.229)">
                        <path d="M6766.1,1025.02C6765.89,1024.13 6766.24,1023.21 6766.99,1022.7C6767.73,1022.18 6768.72,1022.17 6769.47,1022.67C6787.38,1037.05 6789.91,1073 6812.71,1089.9C6822.76,1096.21 6836.73,1101.73 6899.96,1097.26C6907.53,1096.74 6915.1,1098.14 6921.98,1101.33C6956.01,1117.25 6989.94,1132.2 7020.58,1113.27C7054.82,1077.77 7088.98,1084.22 7113.44,1066.34C7113.93,1065.96 7114.61,1065.97 7115.09,1066.36C7115.57,1066.75 7115.71,1067.42 7115.43,1067.97C7066.16,1165.26 7004.02,1237.95 6896.7,1224.29C6833.63,1216.84 6793.36,1140.56 6766.1,1025.02Z" style="fill:rgb(32,30,29);"/>
                    </g>
                    <g transform="matrix(1.19473,0,0,1.32773,-5973.83,-392.229)">
                        <clipPath id="_clip2">
                            <path d="M6766.1,1025.02C6765.89,1024.13 6766.24,1023.21 6766.99,1022.7C6767.73,1022.18 6768.72,1022.17 6769.47,1022.67C6787.38,1037.05 6789.91,1073 6812.71,1089.9C6822.76,1096.21 6836.73,1101.73 6899.96,1097.26C6907.53,1096.74 6915.1,1098.14 6921.98,1101.33C6956.01,1117.25 6989.94,1132.2 7020.58,1113.27C7054.82,1077.77 7088.98,1084.22 7113.44,1066.34C7113.93,1065.96 7114.61,1065.97 7115.09,1066.36C7115.57,1066.75 7115.71,1067.42 7115.43,1067.97C7066.16,1165.26 7004.02,1237.95 6896.7,1224.29C6833.63,1216.84 6793.36,1140.56 6766.1,1025.02Z"/>
                        </clipPath>
                        <g clip-path="url(#_clip2)">
                            <path d="M6841.81,1098.2C6908.29,1086.16 6964.98,1098.37 7020.58,1113.27C7029.59,1180.2 6993.25,1207.56 6907.74,1205.43C6841.4,1203.79 6833.46,1154.38 6841.81,1098.2Z" style="fill:rgb(250,250,225);"/>
                        </g>
                    </g>
                    <g transform="matrix(0.92534,0,0,1.02836,-4108.89,-56.2509)">
                        <clipPath id="_clip3">
                            <path d="M6766.55,1026.9C6766.27,1025.74 6766.74,1024.53 6767.73,1023.87C6768.72,1023.2 6770.02,1023.22 6770.98,1023.92C6787.54,1039.08 6790.55,1073.48 6812.71,1089.9C6822.59,1096.11 6836.26,1101.55 6896.83,1097.48C6906.45,1096.86 6916.08,1098.64 6924.85,1102.66C6957.91,1118.07 6990.8,1131.67 7020.58,1113.27C7054.23,1078.37 7087.82,1084.02 7112.18,1067.23C7112.82,1066.76 7113.69,1066.79 7114.29,1067.29C7114.89,1067.8 7115.07,1068.66 7114.71,1069.36C7065.57,1165.95 7003.51,1237.89 6896.7,1224.29C6833.97,1216.88 6793.8,1141.39 6766.55,1026.9Z"/>
                        </clipPath>
                        <g clip-path="url(#_clip3)">
                            <clipPath id="_clip4">
                                <path d="M6720.44,996.706C6720.17,995.567 6720.63,994.379 6721.59,993.71C6722.55,993.04 6723.82,993.026 6724.8,993.672C6747.91,1012.24 6751.18,1058.66 6780.61,1080.49C6793.6,1088.63 6811.63,1095.76 6893.27,1089.99C6903.04,1089.31 6912.82,1091.12 6921.71,1095.23C6965.64,1115.8 7009.44,1135.1 7049.01,1110.65C7093.21,1064.82 7137.32,1073.15 7168.9,1050.06C7169.53,1049.57 7170.41,1049.58 7171.03,1050.09C7171.64,1050.59 7171.83,1051.46 7171.47,1052.17C7107.86,1177.78 7027.63,1271.64 6889.06,1253.99C6807.63,1244.37 6755.64,1145.89 6720.44,996.706Z"/>
                            </clipPath>
                            <g clip-path="url(#_clip4)">
                                <path d="M6841.81,1098.2C6908.29,1086.16 6964.98,1098.37 7020.58,1113.27C7029.59,1180.2 6993.25,1207.56 6907.74,1205.43C6841.4,1203.79 6833.46,1154.38 6841.81,1098.2Z" style="fill:rgb(247,127,180);"/>
                            </g>
                        </g>
                    </g>
                    <g transform="matrix(1.19473,0,0,1.32773,-5973.83,-392.229)">
                        <path d="M6978.03,1216.42C6984.32,1266.34 6997.82,1307.02 6899.89,1336.03C6874.57,1343.78 6847.03,1337.63 6827.42,1319.83C6808.73,1302.97 6801.75,1287.72 6801.75,1273.06C6801.75,1247.13 6823.59,1223.06 6841.11,1195.24C6845.32,1188.55 6849.29,1181.64 6852.64,1174.43C6862.77,1152.66 6867.28,1128.18 6856.13,1098.86C6867.31,1099.02 6881.54,1098.57 6899.96,1097.26C6907.53,1096.74 6915.1,1098.14 6921.98,1101.33C6946.73,1112.91 6971.43,1123.98 6994.85,1121.86C6995.25,1122.19 6995.65,1122.51 6996.04,1122.83C6983.96,1140.77 6978.62,1157.99 6976.8,1174.43C6975.18,1189.06 6976.35,1203.07 6978.03,1216.42Z" style="fill:rgb(244,162,168);"/>
                    </g>
                    <g transform="matrix(1.19473,0,0,1.32773,-5973.83,-392.229)">
                        <path d="M6870.62,1098.75C6879.01,1098.54 6888.71,1098.06 6899.96,1097.26C6907.53,1096.74 6915.1,1098.14 6921.98,1101.33C6938.26,1108.95 6954.52,1116.34 6970.41,1119.91C6967.49,1127.58 6964.44,1141.21 6958.92,1147.4C6953.62,1153.34 6947.76,1159.45 6940.57,1163.08C6935.21,1165.78 6929.98,1168.47 6923.88,1169.08C6915.85,1169.89 6907.18,1170.9 6899.5,1167.44C6896.33,1166.01 6892.91,1162.61 6890.68,1159.96C6880.48,1147.87 6878.19,1127.47 6873.79,1112.36C6872.45,1107.74 6871.35,1103.28 6870.62,1098.75Z" style="fill-opacity:0.1;"/>
                    </g>
                    <g transform="matrix(1.19473,0,0,1.32773,-5973.83,-392.229)">
                        <path d="M6770.43,468.971C6766.63,465.143 6761.31,463.233 6755.94,463.775C6750.57,464.316 6745.74,467.251 6742.78,471.761C6681.21,566.699 6725.74,774.043 6801.75,692.843C6801.75,692.843 6819.88,669.71 6835.6,649.644C6850.91,630.103 6854.67,603.895 6845.48,580.835C6827.68,535.96 6801.26,500.143 6770.43,468.971Z" style="fill:rgb(238,117,40);"/>
                    </g>
                    <g transform="matrix(1.19473,0,0,1.32773,-5973.83,-392.229)">
                        <path d="M7295.21,531.461C7293.4,527.618 7289.84,524.894 7285.65,524.162C7281.47,523.429 7277.19,524.779 7274.19,527.78C7248.76,553.086 7190.97,610.784 7164.89,636.827C7156.71,644.987 7153.52,656.89 7156.51,668.045C7161.74,687.56 7169.94,718.128 7174.43,734.87C7177.01,744.515 7182,753.346 7188.93,760.537C7267.83,842.12 7347.38,644.579 7295.21,531.461Z" style="fill:rgb(238,117,40);"/>
                    </g>
                    <g transform="matrix(1.19473,0,0,1.32773,-5973.83,-392.229)">
                        <path d="M6886.32,808.271C6877.78,811.743 6867.98,808.578 6863.08,800.767C6850.1,780.008 6854.25,762.757 6881.2,750.165C6889.03,746.489 6898.37,748.581 6903.89,755.25C6922.14,777.365 6918.24,795.398 6886.32,808.271Z" style="fill:rgb(238,117,40);"/>
                    </g>
                    <g transform="matrix(1.19473,0,0,1.32773,-5973.83,-392.229)">
                        <path d="M7010.15,802.831C7002.44,780.595 7024.56,759.21 7046.61,767.903C7054.06,770.86 7059.95,776.765 7062.89,784.218C7065.84,791.67 7065.57,800.008 7062.15,807.255C7043.85,846.062 7026.39,849.632 7010.15,802.831Z" style="fill:rgb(238,117,40);"/>
                    </g>
                    <g transform="matrix(2.10333,0,0,5.32456,-12169.7,-3747.4)">
                        <ellipse cx="6824.91" cy="838.014" rx="9.917" ry="4.353" style="fill:rgb(32,30,29);"/>
                    </g>
                    <g transform="matrix(2.10333,0,0,5.32456,-11869.8,-3716.65)">
                        <ellipse cx="6824.91" cy="838.014" rx="9.917" ry="4.353" style="fill:rgb(32,30,29);"/>
                    </g>
                </g>
            </g>
        </g>
    </g>
</svg>
